<svg version="1.0" xmlns="http://www.w3.org/2000/svg" width="682.667" height="682.667" viewBox="0 0 512 512">
  <style>
    path { fill: #25c2a0; }
  </style>
  <path d="M229 57.1c-25.4 8.6-26.6 9.1-29.5 12.8-1.6 2.1-21 25.4-43 51.7s-40.5 48.5-41.2 49.3c-1 1.3-1.2-4-1.3-25.6v-27.2l10.7-3.4 10.8-3.5 7-9c3.9-5 9.2-11.9 12-15.3 2.7-3.5 4.3-6 3.5-5.7s-15.8 5.4-33.3 11.4L93 103.5l.2 97.5c.3 97.1.3 97.5 2.6 108.3 8 37.8 26.6 67.2 58.8 92.7 14 11.1 62.3 42 65.6 42 .5 0 .8-10.2.8-22.8v-22.7l-10.2-6.2-10.3-6.1-.6 7.1c-.3 4-.5 8.7-.4 10.4.1 1.8-.2 3.3-.7 3.3s-6.2-3.5-12.6-7.9c-35.2-23.5-56.1-48.2-65.6-77.4-5.8-17.9-5.9-18.5-6.3-69.2l-.4-47 13.6-16.5c7.6-9.1 14.2-16.5 14.9-16.5.6 0 6.7 6.1 13.6 13.5s14.8 15.9 17.6 18.9l5 5.4 5.7-9.2 5.8-9.2-6.3-6.8c-3.5-3.8-11.2-12.1-17.1-18.4l-10.9-11.6 27.4-32.8c15-18.1 28.3-34.1 29.5-35.7 1.9-2.3 5.7-3.9 22.9-9.6l20.7-6.8 23.1 7.8c54.2 18.2 113 38.6 124.6 43.2 6.9 2.8 13.1 5.2 13.8 5.5.9.4 1.2-2.3 1.2-11.4v-11.9l-30.2-10.3c-64.7-22-133-45.1-133.1-45-.1 0-12.1 4.1-26.7 9"/><path d="M252 120c-6.9 1.3-13 6-16.4 12.7-2.5 5-2.1 14.9.8 19.9l2.3 4.1-19.5 32.9c-10.7 18.1-26.7 45-35.6 59.9l-16.2 27-5.4.6c-7 .8-10.9 2.8-15.4 8.1-6.4 7.4-7.1 16.8-2 25.5 4.3 7.3 14.2 12.1 22.2 10.7 7.2-1.2 15.4-7.6 17.5-13.7.6-1.6 4.9-1.7 71.7-1.7h71l.9 2.3c2.9 7.6 11 12.7 20.1 12.7 10.4 0 18.6-5.9 21.7-15.7 1.4-4.4 1.5-6 .4-10.6-2.2-10-11.3-17.7-20.8-17.7h-4.8L320 235.7c-13.4-22.6-29.5-49.7-35.6-60l-11.2-18.9 2.5-4.8c8.4-16.3-5.7-35.4-23.7-32m12.6 13.4c3 3 3.4 4 3.4 8.6s-.4 5.6-3.4 8.6-4 3.4-8.6 3.4-5.6-.4-8.6-3.4-3.4-4-3.4-8.6.4-5.6 3.4-8.6 4-3.4 8.6-3.4 5.6.4 8.6 3.4m-15.8 30.2 2.2.6v56.6l-3.7 1.3c-4.6 1.5-11.8 8.1-14.6 13.4-1.7 3.1-2.2 5.7-2.2 11.6l.1 7.6-6.1 3.3c-3.3 1.8-14.5 8.2-24.8 14.3-17.5 10.2-19 10.9-21.3 9.7l-2.4-1.3 2.8-4.8c12.2-21.2 66.8-112.8 67.2-112.8.3-.1 1.5.2 2.8.5m25.4 12.7c4.2 7.3 19.6 33.4 34.2 58.2 14.7 24.7 26.4 45.5 26.2 46.2-.3.8-1.2 1.6-2 1.9-.9.3-12.1-5.5-26.4-13.7l-24.9-14.3.1-7.6c.1-5.9-.4-8.4-2.1-11.5-2.9-5.4-7.7-9.8-13.8-12.7l-5-2.3-.3-27.5c-.2-25-.1-27.6 1.5-28.8 3.4-2.5 4.8-1.1 12.5 12.1m-11.3 56.2c9.9 5.1 11.7 17.7 3.6 25.5-3 2.9-4.3 3.4-9.2 3.7-7.5.5-11.9-1.8-15.1-7.8-4.1-7.6-1.9-15.4 5.8-20.7 3.9-2.6 10.6-3 14.9-.7M246 270.3c8.8 3.9 19.3 2.2 26.4-4.3l4.1-3.8 19.5 11.4c10.7 6.3 22.1 12.9 25.3 14.6 3.9 2.1 5.6 3.6 5.2 4.5-.3.8-.5 2.1-.5 2.9 0 1.2-10.2 1.4-69.9 1.4h-69.9l-.5-2.8c-.3-1.5-.5-2.7-.4-2.8.1 0 5.6-3.2 12.2-7.1s17.8-10.4 24.9-14.6l13-7.5 3 3.1c1.7 1.7 5.1 3.9 7.6 5m108.7 18.3c10.4 6.7 5.6 22.8-6.6 22.6-7.3-.1-12.1-5.4-12.1-13.1 0-9.2 10.7-14.7 18.7-9.5m-184.7-.1c7.7 4 7.9 16.1.4 21-6.3 4.1-14.1 1.5-17.8-5.9-1.6-3.2-1.7-4.4-.7-7.6 2.3-7.8 10.8-11.3 18.1-7.5"/><path d="M397.7 222.7c-.3 73.8-.4 77.1-2.4 85.3-9.4 38.2-29.3 64.2-70.2 91.4-6.2 4.2-11.7 7.6-12.2 7.6s-.9-16.6-.9-38v-38h-21v33.6l-12 5.6-12 5.6V331h-21v16.2c-.1 9-.3 37.5-.6 63.5l-.6 47.2 5.3 3 5.3 3 5.8-3.1 5.8-3.1v-58.4l11.8-5.5 11.7-5.5.3 27.9c.1 15.3.5 27.8.9 27.8 1.3 0 34.4-20.2 47-28.6 33.2-22.4 53.3-44.2 66.3-71.8 5.3-11.2 7.9-19.1 11.2-33.5 2.1-9.3 2.2-11.9 2.5-82.6l.4-73.1-9.3-3.8c-5.1-2.1-9.8-4-10.5-4.3-.9-.4-1.3 17.2-1.6 76.4"/>
</svg>